<?xml version="1.0" encoding="UTF-8"?>
<svg width="72px" height="66px" viewBox="0 0 72 66" version="1.1" xmlns="http://www.w3.org/2000/svg" xmlns:xlink="http://www.w3.org/1999/xlink">
    <!-- Generator: Sketch 55.2 (78181) - https://sketchapp.com -->
    <title>Group 4</title>
    <desc>Created with Sketch.</desc>
    <g id="Design" stroke="none" stroke-width="1" fill="none" fill-rule="evenodd">
        <g id="Nav-1" transform="translate(-1256.000000, -789.000000)" fill="#FFFFFF">
            <g id="Group-4" transform="translate(1256.000000, 789.000000)">
                <path d="M71.7807656,0.0104230286 L50.3427727,7.5292038 C49.9450781,7.66969051 49.8771101,8.18722118 50.2251423,8.41533387 L53.4299201,10.5387011 L67.9748413,3.09422148 L55.6627501,12.0168823 L55.6627501,15.631646 C55.6627501,15.8773606 55.9474472,16.0264564 56.1599389,15.8904113 L58.8718782,14.1444719 L61.5430254,15.9125097 C61.7870999,16.0746562 62.1216854,16.0045773 62.2799384,15.7589175 L71.9749518,0.242812834 C72.0564229,0.11559614 71.9252894,-0.0422731967 71.7807656,0.0104230286 Z" id="Fill-1"></path>
                <path d="M21.7807656,50.010423 L0.342772689,57.5292038 C-0.0549219049,57.6696905 -0.122889883,58.1872212 0.225142323,58.4153339 L3.42992006,60.5387011 L17.9748413,53.0942215 L5.66275006,62.0168823 L5.66275006,65.631646 C5.66275006,65.8773606 5.94744718,66.0264564 6.15993892,65.8904113 L8.87187819,64.1444719 L11.5430254,65.9125097 C11.7870999,66.0746562 12.1216854,66.0045773 12.2799384,65.7589175 L21.9749518,50.2428128 C22.0564229,50.1155961 21.9252894,49.9577268 21.7807656,50.010423 Z" id="Fill-1"></path>
            </g>
        </g>
    </g>
</svg>