<?xml version="1.0" encoding="UTF-8"?>
<svg width="18px" height="19px" viewBox="0 0 18 19" version="1.1" xmlns="http://www.w3.org/2000/svg" xmlns:xlink="http://www.w3.org/1999/xlink">
    <!-- Generator: Sketch 55.2 (78181) - https://sketchapp.com -->
    <title>Shape</title>
    <desc>Created with Sketch.</desc>
    <g id="Design" stroke="none" stroke-width="1" fill="none" fill-rule="evenodd">
        <g id="Werk-1" transform="translate(-31.000000, -477.000000)" fill="#FFFFFF" fill-rule="nonzero">
            <g id="Group-11" transform="translate(31.000000, 395.000000)">
                <g id="Group-10">
                    <path d="M8.99258824,82.4142857 C4.03402139,82.4142857 3.22408766e-13,86.4483071 3.22408766e-13,91.4067777 C3.22408766e-13,96.3652483 4.03402139,100.39927 8.99258824,100.39927 C13.9511551,100.39927 17.9851765,96.3652483 17.9851765,91.4067777 C17.9851765,86.4483071 13.9511551,82.4142857 8.99258824,82.4142857 Z M14.8526952,86.6553552 C15.8622353,87.898029 16.4837647,89.4665317 16.5354545,91.1763392 C14.6653797,90.7891948 12.9720321,90.834628 11.4771658,91.1277296 C11.206492,90.4947456 10.9262888,89.8916975 10.6434866,89.3217617 C12.2714759,88.6204354 13.6887594,87.7246707 14.8526952,86.6553552 Z M13.8396898,85.6257937 C12.6843209,86.680382 11.3453904,87.4612162 9.97440642,88.0376975 C8.96813904,86.1975584 8.00537968,84.8118472 7.4188877,84.0243713 C7.92673797,83.9161788 8.45297326,83.858136 8.99258824,83.858136 C10.8365775,83.858136 12.5273262,84.5236547 13.8396898,85.6257937 Z M5.96059893,84.4959328 C6.40347594,85.0698151 7.45835294,86.5067349 8.59148663,88.5511306 C5.74363636,89.4789488 2.98029947,89.6352697 1.6524385,89.6498044 C2.20591444,87.3377189 3.82504813,85.4365531 5.96059893,84.4959328 Z M1.45174332,91.0973125 C1.4659893,91.0973125 1.47975401,91.0974087 1.49428877,91.0974087 C2.41180749,91.0974087 4.09283422,91.0357082 6.07187166,90.6748419 C7.20096257,90.4689488 8.27162567,90.1918258 9.27625668,89.848382 C9.5377861,90.3696119 9.7977754,90.9194301 10.0498717,91.4957189 C8.64317647,91.9486066 7.45690909,92.6002643 6.51725134,93.2473018 C4.94152941,94.3324034 3.83765775,95.5362857 3.2348984,96.2806387 C2.1188984,94.964521 1.44385027,93.2634729 1.44385027,91.4067777 C1.44385027,91.303013 1.44750802,91.2001146 1.45174332,91.0973125 Z M4.2753369,97.2937403 C4.79425668,96.6403499 5.85048128,95.4510985 7.37836364,94.4075798 C8.41668449,93.6983606 9.49090909,93.1714515 10.5968021,92.8256012 C11.2384492,94.4887242 11.786246,96.3263606 12.1128449,98.2775798 C11.1610588,98.711505 10.105123,98.9554194 8.99258824,98.9554194 C7.20875936,98.9554194 5.56864171,98.3321574 4.2753369,97.2937403 Z M13.4411872,97.5001146 C13.1045775,95.7081039 12.6025989,94.0231306 12.0222674,92.4832162 C13.449754,92.242382 14.9250802,92.2920504 16.4403529,92.6324141 C16.1135615,94.6239649 15.0053583,96.3550451 13.4411872,97.5001146 Z" id="Shape"></path>
                </g>
            </g>
        </g>
    </g>
</svg>