<?xml version="1.0" encoding="UTF-8"?>
<svg width="75px" height="19px" viewBox="0 0 75 19" version="1.1" xmlns="http://www.w3.org/2000/svg" xmlns:xlink="http://www.w3.org/1999/xlink">
    <!-- Generator: Sketch 55.2 (78181) - https://sketchapp.com -->
    <title>Dennis</title>
    <desc>Created with Sketch.</desc>
    <g id="Symbols" stroke="none" stroke-width="1" fill="none" fill-rule="evenodd">
        <g id="NAV-DARK" transform="translate(-34.000000, -30.000000)" fill="#FFFFFF" fill-rule="nonzero">
            <path d="M34.587,48 L34.587,31.9 L40.314,31.9 C45.466,31.9 48.594,35.189 48.594,39.881 C48.594,44.872 45.466,48 40.314,48 L34.587,48 Z M38.221,44.849 L40.153,44.849 C42.499,44.849 44.799,43.538 44.799,39.881 C44.799,36.408 42.522,35.051 40.153,35.051 L38.221,35.051 L38.221,44.849 Z M56.483,48.299 C52.964,48.299 50.319,45.654 50.319,41.997 C50.319,38.202 52.849,35.557 56.552,35.557 C60.554,35.557 62.647,38.501 62.647,41.882 L62.647,42.917 L53.7,42.917 C53.815,44.458 54.942,45.562 56.621,45.562 C58.024,45.562 58.967,44.872 59.312,44.113 L62.532,44.113 C61.98,46.666 59.772,48.299 56.483,48.299 Z M53.769,40.548 L59.335,40.548 C59.197,39.26 58.139,38.271 56.552,38.271 C55.034,38.271 53.93,39.352 53.769,40.548 Z M64.993,48 L64.993,35.856 L68.351,35.856 L68.351,37.19 L68.535,37.19 C69.018,36.362 70.168,35.557 71.801,35.557 C74.492,35.557 76.148,37.374 76.148,39.904 L76.148,48 L72.583,48 L72.583,41.008 C72.583,39.766 71.847,38.869 70.628,38.869 C69.386,38.869 68.558,39.904 68.558,41.192 L68.558,48 L64.993,48 Z M78.793,48 L78.793,35.856 L82.151,35.856 L82.151,37.19 L82.335,37.19 C82.818,36.362 83.968,35.557 85.601,35.557 C88.292,35.557 89.948,37.374 89.948,39.904 L89.948,48 L86.383,48 L86.383,41.008 C86.383,39.766 85.647,38.869 84.428,38.869 C83.186,38.869 82.358,39.904 82.358,41.192 L82.358,48 L78.793,48 Z M94.364,34.499 C93.145,34.499 92.271,33.763 92.271,32.567 C92.271,31.371 93.145,30.635 94.364,30.635 C95.583,30.635 96.457,31.371 96.457,32.567 C96.457,33.763 95.583,34.499 94.364,34.499 Z M92.593,48 L92.593,35.856 L96.158,35.856 L96.158,48 L92.593,48 Z M103.288,48.299 C99.792,48.299 98.159,46.735 98.09,44.274 L101.333,44.274 C101.425,45.125 102.138,45.562 103.311,45.562 C104.507,45.562 105.174,45.125 105.174,44.435 C105.174,42.25 98.32,44.642 98.32,39.421 C98.32,37.351 100.068,35.557 103.311,35.557 C106.117,35.557 108.141,36.891 108.302,39.421 L105.22,39.421 C105.105,38.685 104.484,38.179 103.311,38.179 C102.23,38.179 101.54,38.616 101.54,39.26 C101.54,41.238 108.624,38.869 108.624,44.251 C108.624,46.597 106.738,48.299 103.288,48.299 Z" id="Dennis"></path>
        </g>
    </g>
</svg>